<svg width="172" height="45" viewBox="0 0 172 45" fill="none" xmlns="http://www.w3.org/2000/svg">
<path d="M64.4039 26.9135C63.7235 26.9135 63.0833 26.779 62.4852 26.509C61.8862 26.24 61.3601 25.8661 60.9077 25.3891C60.4553 24.9122 60.0998 24.3599 59.8439 23.7332C59.587 23.1065 59.4595 22.435 59.4595 21.7195C59.4595 21.0041 59.588 20.3259 59.8439 19.6982C60.0998 19.0715 60.4553 18.5202 60.9077 18.0452C61.361 17.5711 61.8862 17.1991 62.4852 16.9291C63.0842 16.6601 63.7235 16.5247 64.4039 16.5247C65.2186 16.5247 65.968 16.7116 66.6543 17.0865C67.3395 17.4614 67.9069 17.9603 68.3573 18.5851L66.7903 19.4216C66.5076 19.0734 66.1568 18.7949 65.7371 18.5851C65.3173 18.3752 64.8735 18.2703 64.4039 18.2703C63.9631 18.2703 63.5481 18.3599 63.1599 18.5383C62.7718 18.7167 62.4315 18.9647 62.1392 19.2824C61.8469 19.6 61.6188 19.9663 61.4569 20.3841C61.2939 20.8019 61.2125 21.2464 61.2125 21.7186C61.2125 22.1908 61.2949 22.641 61.4607 23.0559C61.6255 23.4709 61.8546 23.8372 62.1469 24.1539C62.4392 24.4715 62.7785 24.7186 63.1638 24.8979C63.549 25.0772 63.9631 25.1659 64.4039 25.1659C64.8831 25.1659 65.3297 25.0601 65.7447 24.8473C66.1588 24.6356 66.5076 24.3551 66.7903 24.007L68.3573 24.8512C67.9069 25.4712 67.3386 25.9701 66.6543 26.3459C65.969 26.7227 65.2186 26.9106 64.4039 26.9106V26.9135Z" fill="#003049"/>
<path d="M71.3255 26.7275V16.7117H75.185C75.7313 16.7117 76.2248 16.8471 76.6657 17.119C77.1066 17.3908 77.4564 17.7543 77.7152 18.2102C77.9739 18.6662 78.1033 19.1698 78.1033 19.7231C78.1033 20.1762 78.0209 20.5921 77.8551 20.9717C77.6893 21.3514 77.4602 21.6786 77.165 21.9552C76.8708 22.2318 76.5315 22.4417 76.1482 22.5848L78.5557 26.7275H76.5354L74.2065 22.7422H73.0784V26.7275H71.3245H71.3255ZM73.0794 20.9965H74.9847C75.2339 20.9965 75.461 20.9345 75.6671 20.8105C75.8731 20.6865 76.038 20.5196 76.1625 20.3097C76.2871 20.0999 76.3494 19.8662 76.3494 19.6086C76.3494 19.3511 76.2871 19.1107 76.1625 18.8999C76.038 18.69 75.8721 18.5231 75.6671 18.3991C75.461 18.2751 75.2329 18.2131 74.9847 18.2131H73.0794V20.9956V20.9965Z" fill="#003049"/>
<path d="M81.5756 26.7275V16.7117H83.3295V26.7275H81.5756Z" fill="#003049"/>
<path d="M90.3306 26.9135C89.7747 26.9135 89.2418 26.8267 88.731 26.6521C88.2211 26.4776 87.7736 26.2277 87.3902 25.9005C87.0068 25.5742 86.7308 25.1812 86.5641 24.7234L88.2096 24.1224C88.2767 24.3132 88.4128 24.4878 88.6198 24.6442C88.8259 24.8016 89.077 24.9285 89.375 25.0239C89.6721 25.1192 89.9903 25.1669 90.3306 25.1669C90.6708 25.1669 91.0072 25.1135 91.312 25.0057C91.6158 24.8989 91.8621 24.7482 92.049 24.5545C92.2359 24.3619 92.3288 24.1358 92.3288 23.8782C92.3288 23.6207 92.2301 23.4003 92.0346 23.2305C91.8381 23.0617 91.5861 22.9263 91.2794 22.8261C90.9727 22.7259 90.6564 22.6496 90.3306 22.5972C89.6166 22.4875 88.9763 22.3177 88.4118 22.0887C87.8464 21.8598 87.3998 21.5431 87.071 21.1368C86.7423 20.7314 86.5784 20.2067 86.5784 19.5628C86.5784 18.9571 86.7529 18.4277 87.1036 17.9746C87.4535 17.5215 87.9135 17.1686 88.4837 16.9158C89.054 16.663 89.6702 16.5371 90.3306 16.5371C90.8816 16.5371 91.4136 16.623 91.9263 16.7947C92.4391 16.9664 92.8885 17.2163 93.2738 17.5463C93.6591 17.8754 93.9361 18.2713 94.1038 18.7339L92.4506 19.3272C92.3835 19.1365 92.2464 18.9628 92.0413 18.8055C91.8353 18.6481 91.5832 18.5231 91.2861 18.4296C90.989 18.3371 90.6698 18.2904 90.3296 18.2904C89.9894 18.2856 89.6674 18.339 89.3626 18.4516C89.0578 18.5641 88.8105 18.7148 88.6189 18.9056C88.4272 19.0964 88.3313 19.3158 88.3313 19.5638C88.3313 19.8833 88.4214 20.1247 88.6007 20.2868C88.7799 20.449 89.0214 20.5673 89.3233 20.6407C89.6252 20.7151 89.9606 20.7829 90.3296 20.8449C91.0005 20.9498 91.6206 21.1263 92.1918 21.3743C92.762 21.6223 93.2201 21.9523 93.5642 22.3654C93.9092 22.7784 94.0817 23.2821 94.0817 23.8782C94.0817 24.4744 93.9092 25.0143 93.5642 25.4703C93.2192 25.9262 92.7611 26.2801 92.1918 26.5329C91.6215 26.7857 91.0005 26.9116 90.3296 26.9116L90.3306 26.9135Z" fill="#003049"/>
<path d="M99.1833 14.3975H99.6146V29.0416H99.1833V14.3975Z" fill="#003049"/>
<path d="M104.838 26.7064L106.786 16.6906H107.296L110.221 24.3522L113.14 16.6906H113.65L115.605 26.7064H114.815L113.233 18.5936L110.452 25.9194H109.978L107.203 18.5936L105.622 26.7064H104.839H104.838Z" fill="#003049"/>
<path d="M121.622 16.6906H122.643L126.309 26.7064H125.483L124.657 24.4457H119.617L118.791 26.7064H117.965L121.623 16.6906H121.622ZM119.897 23.673H124.368L122.132 17.571L119.896 23.673H119.897Z" fill="#003049"/>
<path d="M129.299 26.7064V16.6906H132.577C133.109 16.6906 133.591 16.8184 134.022 17.0731C134.453 17.3287 134.795 17.675 135.047 18.1138C135.298 18.5525 135.424 19.0438 135.424 19.5875C135.424 20.0931 135.318 20.549 135.104 20.9535C134.89 21.3589 134.602 21.6918 134.238 21.9512C133.874 22.2117 133.466 22.3748 133.016 22.4415L135.488 26.7054H134.589L132.131 22.4911H130.075V26.7054H129.299V26.7064ZM130.075 21.7195H132.527C132.915 21.7195 133.27 21.625 133.591 21.4371C133.912 21.2492 134.168 20.9926 134.359 20.6683C134.551 20.3439 134.647 19.9738 134.647 19.5598C134.647 19.1459 134.551 18.7815 134.359 18.4543C134.168 18.1281 133.911 17.8705 133.591 17.6816C133.27 17.4937 132.915 17.3993 132.527 17.3993H130.075V21.7204V21.7195Z" fill="#003049"/>
<path d="M146.089 16.6906V17.4632H142.524V26.7064H141.748V17.4632H138.19V16.6906H146.089Z" fill="#003049"/>
<path d="M149.18 26.7064V16.6906H149.956V26.7064H149.18Z" fill="#003049"/>
<path d="M153.651 26.7064V16.6906H154.499L160.135 25.3118V16.6906H160.911V26.7064H160.077L154.427 18.0851V26.7064H153.651Z" fill="#003049"/>
<path d="M167.732 26.8924C167.2 26.8924 166.684 26.8104 166.187 26.6454C165.689 26.4813 165.253 26.2476 164.883 25.9443C164.511 25.6419 164.251 25.2775 164.102 24.853L164.829 24.5812C164.944 24.9055 165.154 25.1831 165.458 25.4149C165.761 25.6467 166.114 25.8212 166.514 25.9404C166.913 26.0597 167.32 26.1198 167.732 26.1198C168.221 26.1198 168.678 26.0358 169.105 25.8699C169.532 25.7029 169.877 25.4702 170.14 25.1726C170.404 24.875 170.535 24.5201 170.535 24.1099C170.535 23.6998 170.399 23.3621 170.126 23.0979C169.853 22.8336 169.502 22.6238 169.073 22.4683C168.643 22.3138 168.197 22.1926 167.732 22.1068C167.051 21.9875 166.443 21.8292 165.906 21.6308C165.369 21.4333 164.944 21.1529 164.631 20.7904C164.316 20.4279 164.16 19.9414 164.16 19.331C164.16 18.7634 164.327 18.2721 164.659 17.8572C164.992 17.4423 165.43 17.1208 165.971 16.8919C166.513 16.6629 167.099 16.5485 167.733 16.5485C168.246 16.5485 168.749 16.6286 169.242 16.7879C169.736 16.9481 170.172 17.1799 170.551 17.4852C170.929 17.7904 171.202 18.1624 171.37 18.6012L170.629 18.8655C170.514 18.5364 170.305 18.2569 170.004 18.0289C169.702 17.8 169.352 17.6264 168.951 17.5062C168.55 17.3869 168.145 17.3268 167.733 17.3268C167.239 17.3221 166.78 17.4041 166.357 17.5739C165.932 17.7437 165.59 17.9783 165.328 18.2788C165.067 18.5793 164.936 18.9303 164.936 19.33C164.936 19.7926 165.058 20.1503 165.302 20.4031C165.547 20.6559 165.879 20.8457 166.302 20.9716C166.724 21.0985 167.201 21.2111 167.732 21.3112C168.364 21.4209 168.953 21.5888 169.496 21.8158C170.04 22.0429 170.479 22.3433 170.812 22.7173C171.145 23.0921 171.312 23.5557 171.312 24.109C171.312 24.6622 171.145 25.1621 170.812 25.5789C170.479 25.9967 170.042 26.3191 169.5 26.5481C168.959 26.777 168.369 26.8915 167.732 26.8915V26.8924Z" fill="#003049"/>
<g clip-path="url(#clip0_49_1024)">
<path d="M34.3507 17.1868L37.173 22.0319L27.7539 38.2013L31.059 43.8748H37.7016L34.3574 38.2126L43.7832 22.0319L37.6625 11.5247L34.3507 17.1868Z" fill="#5EFC8D"/>
<path d="M37.6692 0.189087L12.2188 43.8748H18.6992L37.6692 11.536L43.7842 22.0319L34.3641 38.2013L37.6692 43.8748L47.9155 26.287C49.4498 23.6536 49.4498 20.4103 47.9155 17.7768L37.6692 0.189087Z" fill="#473BF0"/>
<path d="M34.3507 17.1868L37.173 22.0319H43.7832L37.6625 11.5247L34.3507 17.1868Z" fill="#7371FC"/>
<path d="M27.7539 38.2013L31.059 43.8748H37.7016L34.3574 38.2126L27.7539 38.2013Z" fill="#7371FC"/>
<path d="M37.6692 0.189087L12.2188 43.8748H18.7002L37.6692 11.536V0.189087Z" fill="#473BF0"/>
<path d="M15.5325 26.8771L12.7092 22.0319L22.1293 5.86255L18.8242 0.189087H12.1816L15.5258 5.85121L6.09905 22.0319L12.2207 32.5392L15.5325 26.8771Z" fill="#473BF0"/>
<path d="M12.214 43.8748L37.6635 0.189087H31.183L12.214 32.5278L6.09905 22.0319L15.5191 5.86255L12.214 0.189087L1.96768 17.7768C0.43345 20.4103 0.43345 23.6536 1.96768 26.287L12.214 43.8748Z" fill="#5EFC8D"/>
<path d="M15.5325 26.8771L12.7092 22.032H6.09905L12.2207 32.5392L15.5325 26.8771Z" fill="#7371FC"/>
<path d="M22.1293 5.86255L18.8242 0.189087H12.1816L15.5258 5.85121L22.1293 5.86255Z" fill="#7371FC"/>
<path d="M12.214 43.8748L37.6634 0.189087H31.183L12.214 32.5278V43.8748Z" fill="#5EFC8D"/>
<path d="M37.7016 44.0639H31.059C30.9912 44.0639 30.9273 44.028 30.8939 43.9694L27.5888 38.2959C27.5545 38.2373 27.5545 38.1654 27.5888 38.1068L36.9536 22.0319L34.1857 17.2814C34.1513 17.2227 34.1513 17.1509 34.1857 17.0922L37.4974 11.4301C37.5318 11.3715 37.5947 11.3356 37.6625 11.3356C37.7302 11.3356 37.7932 11.3715 37.8276 11.4301L43.9492 21.9374C43.9836 21.996 43.9836 22.0679 43.9492 22.1265L34.5778 38.2127L37.8657 43.7793C37.9001 43.8379 37.901 43.9098 37.8657 43.9694C37.8314 44.028 37.7684 44.0639 37.7007 44.0639H37.7016ZM31.1697 43.6857H37.3696L34.1933 38.3082C34.1589 38.2496 34.158 38.1767 34.1933 38.1181L43.5647 22.0319L37.6634 11.902L34.5721 17.1868L37.34 21.9374C37.3743 21.996 37.3743 22.0679 37.34 22.1265L27.9752 38.2013L31.1706 43.6857H31.1697Z" fill="#003049"/>
<path d="M37.6692 44.0639C37.6014 44.0639 37.5375 44.028 37.5041 43.9694L34.199 38.2959C34.1647 38.2373 34.1647 38.1654 34.199 38.1068L43.5638 22.032L37.6692 11.9133L18.8643 43.9694C18.8299 44.028 18.767 44.0639 18.6992 44.0639H12.2188C12.1511 44.0639 12.0871 44.028 12.0537 43.9694C12.0194 43.9107 12.0194 43.8389 12.0537 43.7803L37.5041 0.0945578C37.5385 0.035932 37.6014 0 37.6692 0C37.7369 0 37.8008 0.035932 37.8342 0.0945578L48.0806 17.6823C49.6434 20.3649 49.6434 23.699 48.0806 26.3816L37.8342 43.9694C37.7999 44.028 37.7369 44.0639 37.6692 44.0639ZM12.5499 43.6857H18.5905L37.5041 11.4415C37.5385 11.3829 37.6014 11.3469 37.6692 11.3469C37.7369 11.3469 37.7999 11.3829 37.8342 11.4415L43.9492 21.9374C43.9836 21.996 43.9836 22.0679 43.9492 22.1265L34.5845 38.2013L37.6692 43.4966L47.7505 26.1925C49.2456 23.6262 49.2456 20.4377 47.7505 17.8714L37.6692 0.567347L12.5499 43.6857Z" fill="#003049"/>
<path d="M43.7832 22.2211H37.173C37.1053 22.2211 37.0414 22.1851 37.008 22.1265L34.1847 17.2814C34.1503 17.2227 34.1503 17.1509 34.1847 17.0922L37.4965 11.4301C37.5308 11.3715 37.5938 11.3356 37.6615 11.3356C37.7293 11.3356 37.7922 11.3715 37.8266 11.4301L43.9483 21.9374C43.9826 21.996 43.9826 22.0679 43.9483 22.1265C43.9139 22.1851 43.8509 22.2211 43.7832 22.2211ZM37.2827 21.8428H43.4521L37.6606 11.902L34.5692 17.1868L37.2818 21.8428H37.2827Z" fill="#003049"/>
<path d="M37.7016 44.0639H31.059C30.9912 44.0639 30.9273 44.028 30.8939 43.9693L27.5888 38.2959C27.5545 38.2373 27.5545 38.1654 27.5888 38.1068C27.6232 38.0481 27.6861 38.0122 27.7539 38.0122L34.3574 38.0236C34.4251 38.0236 34.4872 38.0595 34.5215 38.1172L37.8657 43.7793C37.9001 43.8379 37.901 43.9098 37.8657 43.9693C37.8314 44.028 37.7684 44.0639 37.7007 44.0639H37.7016ZM31.1697 43.6857H37.3696L34.2486 38.4018L28.085 38.3914L31.1697 43.6857Z" fill="#003049"/>
<path d="M12.2207 32.7283C12.153 32.7283 12.09 32.6924 12.0557 32.6338L5.93398 22.1265C5.89963 22.0679 5.89963 21.996 5.93398 21.9374L15.3045 5.85124L12.0165 0.284619C11.9822 0.225993 11.9812 0.154129 12.0165 0.0945578C12.0509 0.035932 12.1139 0 12.1816 0H18.8242C18.892 0 18.9559 0.035932 18.9893 0.0945578L22.2944 5.76802C22.3287 5.82665 22.3287 5.89851 22.2944 5.95714L12.9296 22.032L15.6976 26.7825C15.7319 26.8412 15.7319 26.913 15.6976 26.9717L12.3858 32.6338C12.3514 32.6924 12.2885 32.7283 12.2207 32.7283ZM6.31945 22.032L12.2207 32.1619L15.3121 26.8771L12.5442 22.1265C12.5098 22.0679 12.5098 21.996 12.5442 21.9374L21.9089 5.86258L18.7135 0.378231H12.5146L15.6909 5.75573C15.7252 5.81436 15.7262 5.88717 15.6909 5.94579L6.31945 22.032Z" fill="#003049"/>
<path d="M12.2143 44.0639C12.1465 44.0639 12.0826 44.028 12.0492 43.9694L1.80285 26.3816C0.239992 23.699 0.239992 20.3649 1.80285 17.6823L12.0483 0.0945578C12.0826 0.035932 12.1456 0 12.2133 0C12.2811 0 12.345 0.035932 12.3784 0.0945578L15.6835 5.76802C15.7178 5.82665 15.7178 5.89851 15.6835 5.95714L6.31968 22.032L12.2143 32.1506L31.0182 0.0945578C31.0525 0.035932 31.1155 0 31.1833 0H37.6637C37.7314 0 37.7953 0.035932 37.8287 0.0945578C37.8631 0.153184 37.8631 0.225048 37.8287 0.283673L12.3793 43.9694C12.345 44.028 12.282 44.0639 12.2143 44.0639ZM12.2143 0.567347L2.13298 17.8714C0.637863 20.4377 0.637863 23.6262 2.13298 26.1925L12.2143 43.4966L37.3335 0.378231H31.293L12.3784 32.6224C12.344 32.6811 12.2811 32.717 12.2133 32.717C12.1456 32.717 12.0826 32.6811 12.0483 32.6224L5.93422 22.1265C5.89987 22.0679 5.89987 21.996 5.93422 21.9374L15.299 5.86258L12.2143 0.567347Z" fill="#003049"/>
<path d="M12.2207 32.7284C12.153 32.7284 12.09 32.6925 12.0557 32.6338L5.93398 22.1266C5.89963 22.0679 5.89963 21.9961 5.93398 21.9375C5.96833 21.8788 6.0313 21.8429 6.09904 21.8429H12.7092C12.777 21.8429 12.8409 21.8788 12.8743 21.9375L15.6976 26.7826C15.7319 26.8412 15.7319 26.9131 15.6976 26.9717L12.3858 32.6338C12.3514 32.6925 12.2885 32.7284 12.2207 32.7284ZM6.43013 22.2211L12.2217 32.162L15.313 26.8772L12.6005 22.2211H6.42917H6.43013Z" fill="#003049"/>
<path d="M22.1293 6.0517L15.5258 6.04035C15.4581 6.04035 15.3961 6.00442 15.3617 5.94674L12.0165 0.284619C11.9822 0.225993 11.9812 0.154129 12.0165 0.0945578C12.0509 0.035932 12.1139 0 12.1816 0H18.8242C18.892 0 18.9559 0.035932 18.9893 0.0945578L22.2944 5.76802C22.3287 5.82665 22.3287 5.89851 22.2944 5.95714C22.26 6.01577 22.1971 6.0517 22.1293 6.0517ZM15.6355 5.66212L21.7992 5.67252L18.7135 0.378231H12.5146L15.6355 5.66212Z" fill="#003049"/>
</g>
<defs>
<clipPath id="clip0_49_1024">
<rect width="48.6223" height="44.0639" fill="white" transform="translate(0.629997)"/>
</clipPath>
</defs>
</svg>
